<mxfile host="app.diagrams.net" modified="2022-04-01T11:24:05.675Z" agent="5.0 (Macintosh; Intel Mac OS X 10_15_7) AppleWebKit/605.1.15 (KHTML, like Gecko) Version/15.3 Safari/605.1.15" etag="Rm_fWFnKOHyF6hWV0-Jf" version="17.1.3" type="github">
  <diagram id="hA1YcgzsQRLrEE8Hanwv" name="Page-1">
    <mxGraphModel dx="830" dy="535" grid="1" gridSize="10" guides="1" tooltips="1" connect="1" arrows="1" fold="1" page="1" pageScale="1" pageWidth="827" pageHeight="1169" math="0" shadow="0">
      <root>
        <mxCell id="0" />
        <mxCell id="1" parent="0" />
        <mxCell id="zMRIts5MzGTqEyit8UMt-1" value="Тест&lt;br&gt;" style="whiteSpace=wrap;html=1;aspect=fixed;" vertex="1" parent="1">
          <mxGeometry x="370" y="370" width="80" height="80" as="geometry" />
        </mxCell>
      </root>
    </mxGraphModel>
  </diagram>
</mxfile>
